# xmcd
#
# Track frame offsets: 
#        150
#        27950
#        44982
#        65305
#        83612
#        110760
#        127637
#
# Disc length: 1937 seconds
#
# Revision: 1
# Processed by: cddbd v1.5.2PL0 Copyright (c) Steve Scherf et al.
# Submitted via: ExactAudioCopy v0.99pb4
#
DISCID=56078f07
DTITLE=Oscar "Harpo" Davis - Oscar "Harpo" Davis
DYEAR=1996
DGENRE=Blues
TTITLE0=Caress Me
TTITLE1=I'm A Fool For You
TTITLE2=I Want To Know
TTITLE3=All Alone
TTITLE4=When I First Met You
TTITLE5=Baby Scratch My Back
TTITLE6=Rainin' In My Heart
EXTD=
EXTT0=Swamp Blues/ From CD " Oscar "Harpo" Davis "
EXTT1=Swamp Blues/ From CD " Oscar "Harpo" Davis "
EXTT2=Swamp Blues/ From CD " Oscar "Harpo" Davis "
EXTT3=Swamp Blues/ From CD " Oscar "Harpo" Davis "
EXTT4=Swamp Blues/ From CD " Oscar "Harpo" Davis "
EXTT5=Swamp Blues/ From CD " Oscar "Harpo" Davis "
EXTT6=Swamp Blues/ From CD " Oscar "Harpo" Davis "
PLAYORDER=
